<svg version="1.1" xmlns="http://www.w3.org/2000/svg" xmlns:xlink="http://www.w3.org/1999/xlink" width="199.11909" height="199.11908" viewBox="0,0,199.11909,199.11908"><defs><clipPath id="clip-1"><path d="M221.36231,80.44046h199.11909v199.11908h-199.11908z" fill="none"/></clipPath><clipPath id="clip-2"><path d="M322.02807,80.44046h199.11908v199.11908h-199.11908z" fill="none"/></clipPath><clipPath id="clip-3"><path d="M221.36231,80.44046h199.11909v199.11908h-199.11908z" fill="none"/></clipPath><clipPath id="clip-4"><path d="M118.85286,80.44046h199.11908v199.11908h-199.11908z" fill="none"/></clipPath><clipPath id="clip-5"><path d="M221.36231,279.55954v-199.11908h199.11909v199.11908z" fill="none"/></clipPath></defs><g transform="translate(-221.3623,-80.44046)"><g clip-path="url(#clip-5)" stroke="none" stroke-miterlimit="10"><g clip-path="url(#clip-1)"><g fill="#fff200" visibility="hidden"><g><path d="M69.92476,202.99982c18.89687,-15.85805 16.24588,-26.14913 30.96209,-38.49882c10.53526,-8.84107 22.66994,-6.2679 31.36584,-13.5654c8.6959,-7.2975 9.4803,-19.26809 23.52765,-31.05647c9.19768,-7.71859 18.35596,-5.29523 28.38986,-13.71556c11.03704,-9.26215 8.76905,-20.11535 19.80624,-29.37764c0.12788,0.15238 87.0296,-6.32787 87.0296,-6.32787l-8.5708,99.82149l-314.39124,263.83363l-79.39345,6.69482l7.57165,-92.27961c0,0 3.02016,-2.77517 12.08919,-10.3858c15.05064,-12.63033 12.63669,-22.63896 28.02176,-35.54994c9.3649,-7.85892 23.33881,-6.82921 30.69684,-13.00399c7.35817,-6.17489 8.92981,-18.56544 24.48224,-31.61686c10.20098,-8.56054 16.89986,-4.31396 27.60248,-13.29548c10.70262,-8.98152 10.72735,-21.51805 18.2526,-27.83315c11.87327,-9.96391 26.37009,-8.65096 32.55747,-13.84334z"/></g></g><g fill="#00adef" visibility="hidden"><g><path d="M114.37787,197.65383c18.89687,-15.85805 16.24589,-26.14913 30.9621,-38.49882c10.53526,-8.84107 22.66994,-6.2679 31.36584,-13.5654c8.6959,-7.2975 9.48029,-19.26808 23.52764,-31.05646c9.19768,-7.71859 18.35596,-5.29523 28.38986,-13.71556c11.03704,-9.26215 8.76905,-20.11535 19.80624,-29.37763c0.12788,0.15238 87.02961,-6.32787 87.02961,-6.32787l-8.5708,99.82149l-314.39124,263.83363l-79.39345,6.69482l7.57164,-92.27961c0,0 3.02015,-2.77517 12.08918,-10.38579c15.05064,-12.63032 12.63669,-22.63896 28.02176,-35.54994c9.3649,-7.85892 23.33881,-6.82921 30.69684,-13.00399c7.35817,-6.17489 8.92982,-18.56544 24.48224,-31.61686c10.20098,-8.56054 16.89985,-4.31396 27.60247,-13.29548c10.70262,-8.98152 10.72736,-21.51805 18.25261,-27.83316c11.87327,-9.96392 26.37008,-8.65097 32.55746,-13.84334z"/></g></g><g fill="#ed008c"><g><path d="M73.60779,202.5569c18.89687,-15.85805 16.24588,-26.14913 30.96209,-38.49882c10.53526,-8.84107 22.66995,-6.2679 31.36584,-13.5654c8.6959,-7.2975 9.4803,-19.26809 23.52765,-31.05647c9.19768,-7.71859 18.35595,-5.29523 28.38985,-13.71556c11.03704,-9.26216 8.76905,-20.11535 19.80624,-29.37764c0.12788,0.15238 87.02961,-6.32787 87.02961,-6.32787l-8.5708,99.82149l-314.39124,263.83362l-79.39345,6.69482l7.57165,-92.27961c0,0 3.02016,-2.77517 12.08919,-10.38579c15.05064,-12.63033 12.63668,-22.63896 28.02175,-35.54994c9.3649,-7.85892 23.33881,-6.82921 30.69685,-13.00398c7.35817,-6.17489 8.92981,-18.56544 24.48224,-31.61686c10.20098,-8.56054 16.89985,-4.31397 27.60248,-13.29549c10.70262,-8.98152 10.72736,-21.51805 18.25261,-27.83316c11.87327,-9.96391 26.37009,-8.65096 32.55747,-13.84334z"/></g></g><g fill="#fff200"><g><path d="M132.87764,195.42902c18.89687,-15.85805 16.24589,-26.14913 30.9621,-38.49882c10.53526,-8.84107 22.66994,-6.2679 31.36584,-13.5654c8.6959,-7.2975 9.4803,-19.26809 23.52765,-31.05647c9.19768,-7.71859 18.35596,-5.29523 28.38986,-13.71556c11.03703,-9.26216 8.76905,-20.11535 19.80624,-29.37763c0.12788,0.15238 87.02961,-6.32787 87.02961,-6.32787l-8.5708,99.82149l-314.39124,263.83363l-79.39345,6.69481l7.57164,-92.27961c0,0 3.02016,-2.77517 12.08919,-10.38579c15.05064,-12.63033 12.63668,-22.63896 28.02175,-35.54994c9.3649,-7.85892 23.33881,-6.82921 30.69685,-13.00399c7.35817,-6.17489 8.92981,-18.56544 24.48224,-31.61686c10.20098,-8.56054 16.89986,-4.31397 27.60248,-13.29549c10.70262,-8.98152 10.72736,-21.51804 18.25261,-27.83315c11.87327,-9.96392 26.37009,-8.65097 32.55747,-13.84334z"/></g></g><g fill="#00adef"><g><path d="M188.44311,188.74664c18.89687,-15.85805 16.24589,-26.14913 30.9621,-38.49882c10.53526,-8.84107 22.66994,-6.2679 31.36584,-13.5654c8.69589,-7.2975 9.48029,-19.26809 23.52764,-31.05647c9.19768,-7.71859 18.35596,-5.29523 28.38986,-13.71556c11.03704,-9.26216 8.76905,-20.11535 19.80624,-29.37764c0.12788,0.15239 87.02961,-6.32787 87.02961,-6.32787l-8.5708,99.82149l-314.39124,263.83363l-79.39345,6.69482l7.57164,-92.27961c0,0 3.02016,-2.77517 12.08918,-10.3858c15.05063,-12.63032 12.63669,-22.63896 28.02176,-35.54994c9.36489,-7.85892 23.33881,-6.82921 30.69684,-13.00399c7.35817,-6.17489 8.92981,-18.56544 24.48224,-31.61686c10.20098,-8.56054 16.89985,-4.31396 27.60247,-13.29548c10.70262,-8.98152 10.72736,-21.51805 18.25261,-27.83316c11.87327,-9.96392 26.37009,-8.65097 32.55747,-13.84334z"/></g></g><g fill="#ed008c"><g><path d="M251.41732,181.17329c18.89687,-15.85805 16.24589,-26.14913 30.9621,-38.49881c10.53526,-8.84107 22.66994,-6.26791 31.36584,-13.56541c8.6959,-7.2975 9.4803,-19.26808 23.52765,-31.05646c9.19768,-7.71859 18.35595,-5.29523 28.38986,-13.71556c11.03704,-9.26215 8.76905,-20.11535 19.80624,-29.37763c0.12788,0.15239 87.02961,-6.32787 87.02961,-6.32787l-8.5708,99.82149l-314.39124,263.83363l-79.39345,6.69482l7.57164,-92.27962c0,0 3.02016,-2.77517 12.08918,-10.38579c15.05064,-12.63032 12.63669,-22.63896 28.02176,-35.54994c9.3649,-7.85892 23.33881,-6.82921 30.69684,-13.00399c7.35817,-6.17489 8.92981,-18.56545 24.48224,-31.61687c10.20098,-8.56054 16.89986,-4.31396 27.60248,-13.29548c10.70262,-8.98152 10.72736,-21.51805 18.25261,-27.83316c11.87327,-9.96392 26.37009,-8.65097 32.55747,-13.84334z"/></g></g><g fill="#fff200"><g><path d="M310.68716,174.04541c18.89687,-15.85805 16.24589,-26.14914 30.9621,-38.49882c10.53526,-8.84108 22.66994,-6.2679 31.36584,-13.5654c8.6959,-7.2975 9.4803,-19.26809 23.52765,-31.05647c9.19768,-7.71859 18.35596,-5.29523 28.38986,-13.71556c11.03704,-9.26216 8.76905,-20.11535 19.80624,-29.37763c0.12788,0.15239 87.02961,-6.32787 87.02961,-6.32787l-8.5708,99.82149l-314.39124,263.83363l-79.39345,6.69482l7.57165,-92.27961c0,0 3.02015,-2.77517 12.08918,-10.3858c15.05064,-12.63032 12.63668,-22.63896 28.02175,-35.54994c9.36489,-7.85892 23.33881,-6.82921 30.69684,-13.00399c7.35817,-6.17489 8.92981,-18.56544 24.48224,-31.61686c10.20098,-8.56054 16.89985,-4.31397 27.60247,-13.29549c10.70262,-8.98152 10.72736,-21.51805 18.25261,-27.83316c11.87327,-9.96392 26.37009,-8.65096 32.55747,-13.84334z"/></g></g><g fill="#00adef"><g><path d="M366.25263,167.36304c18.89687,-15.85805 16.24589,-26.14913 30.9621,-38.49882c10.53526,-8.84108 22.66994,-6.2679 31.36584,-13.5654c8.6959,-7.2975 9.4803,-19.26808 23.52765,-31.05647c9.19768,-7.71859 18.35596,-5.29523 28.38986,-13.71556c11.03704,-9.26215 8.76905,-20.11535 19.80624,-29.37764c0.12788,0.15239 87.0296,-6.32787 87.0296,-6.32787l-8.5708,99.82149l-314.39124,263.83363l-79.39345,6.69482l7.57164,-92.27961c0,0 3.02015,-2.77517 12.08918,-10.3858c15.05064,-12.63032 12.63669,-22.63896 28.02176,-35.54994c9.36489,-7.85892 23.33881,-6.82921 30.69684,-13.00399c7.35817,-6.17489 8.92981,-18.56544 24.48224,-31.61686c10.20098,-8.56054 16.89985,-4.31396 27.60247,-13.29548c10.70262,-8.98152 10.72736,-21.51805 18.25261,-27.83316c11.87327,-9.96392 26.37009,-8.65097 32.55747,-13.84334z"/></g></g><g fill="#ed008c"><g><path d="M429.22684,159.78966c18.89687,-15.85805 16.24589,-26.14913 30.9621,-38.49881c10.53526,-8.84108 22.66994,-6.2679 31.36584,-13.5654c8.6959,-7.2975 9.48029,-19.26808 23.52764,-31.05647c9.19768,-7.71859 18.35596,-5.29523 28.38986,-13.71556c11.03703,-9.26215 8.76905,-20.11535 19.80624,-29.37763c0.12788,0.15239 87.02961,-6.32787 87.02961,-6.32787l-8.5708,99.82149l-314.39124,263.83363l-79.39345,6.69482l7.57164,-92.27961c0,0 3.02015,-2.77517 12.08918,-10.3858c15.05064,-12.63033 12.63669,-22.63896 28.02175,-35.54994c9.36489,-7.85891 23.33881,-6.82921 30.69684,-13.00399c7.35817,-6.17489 8.92982,-18.56544 24.48224,-31.61686c10.20097,-8.56054 16.89985,-4.31396 27.60247,-13.29548c10.70262,-8.98152 10.72736,-21.51805 18.25261,-27.83316c11.87327,-9.96392 26.37008,-8.65097 32.55746,-13.84334z"/></g></g><g fill="#fff200"><g><path d="M488.49669,152.6618c18.89687,-15.85805 16.24589,-26.14913 30.9621,-38.49882c10.53526,-8.84108 22.66994,-6.2679 31.36584,-13.5654c8.69589,-7.2975 9.48029,-19.26808 23.52765,-31.05647c9.19768,-7.71859 18.35596,-5.29523 28.38986,-13.71557c11.03703,-9.26215 8.76905,-20.11534 19.80624,-29.37763c0.12788,0.15238 87.02961,-6.32787 87.02961,-6.32787l-8.5708,99.82149l-314.39124,263.83363l-79.39345,6.69481l7.57164,-92.27961c0,0 3.02015,-2.77517 12.08918,-10.38579c15.05064,-12.63032 12.63669,-22.63896 28.02175,-35.54994c9.36489,-7.85891 23.33881,-6.82921 30.69684,-13.00399c7.35817,-6.17489 8.92981,-18.56544 24.48224,-31.61686c10.20098,-8.56054 16.89985,-4.31397 27.60247,-13.29549c10.70262,-8.98152 10.72736,-21.51804 18.25261,-27.83315c11.87327,-9.96392 26.37009,-8.65097 32.55747,-13.84334z"/></g></g><g fill="#00adef"><g><path d="M544.06218,145.97941c18.89687,-15.85805 16.24588,-26.14913 30.96209,-38.49881c10.53526,-8.84108 22.66995,-6.2679 31.36584,-13.5654c8.69589,-7.2975 9.48029,-19.26809 23.52765,-31.05647c9.19768,-7.71859 18.35596,-5.29522 28.38986,-13.71556c11.03703,-9.26215 8.76905,-20.11535 19.80624,-29.37764c0.12788,0.15238 87.02961,-6.32787 87.02961,-6.32787l-8.5708,99.8215l-314.39124,263.83362l-79.39345,6.69482l7.57164,-92.27962c0,0 3.02016,-2.77517 12.08919,-10.38579c15.05064,-12.63033 12.63669,-22.63896 28.02175,-35.54994c9.36489,-7.85891 23.33881,-6.82921 30.69684,-13.00398c7.35817,-6.17489 8.92982,-18.56545 24.48224,-31.61687c10.20097,-8.56054 16.89985,-4.31396 27.60247,-13.29548c10.70262,-8.98152 10.72736,-21.51805 18.25261,-27.83316c11.87327,-9.96392 26.37009,-8.65096 32.55747,-13.84334z"/></g></g><g fill="#000000" visibility="hidden"><g><path d=""/></g></g></g><g clip-path="url(#clip-2)"><g fill="#fff200"><g><path d="M510.17716,153.63517c0.27655,0.46093 -7.00605,2.30462 -15.85578,3.96395c-8.84974,1.65932 -18.06821,2.48899 -18.06821,2.48899c0,0 -3.59521,-0.36874 -3.59521,-3.77958c0,-3.04209 3.22647,-3.31865 3.22647,-3.31865c0,0 7.92789,-0.09219 15.39486,-0.09219c7.46697,0 18.62132,0.27655 18.89788,0.73748z"/></g></g><g fill="#fff791"><g><path d="M490.44962,147.59707c8.15835,1.61324 20.14237,5.71545 20.0041,5.94591c-0.13828,0.23046 -11.93792,-0.23046 -18.20649,-0.32264c-6.26857,-0.09219 -18.11431,-0.04609 -18.11431,-0.04609c0,0 -3.41084,-0.36874 -3.41084,-3.96395c0,-3.5952 3.22647,-3.91785 3.22647,-3.91785c0,0 8.34272,0.69138 16.50107,2.30462z"/></g></g><g><g fill="#000005"><path d="M435.23501,279.55955h-87.58252v-17.42458c-0.68696,-10.81235 -1.06971,-74.18089 0,-94.99197c0.25811,-5.01762 0.61395,-10.13756 1.1748,-15.26561c1.92131,-17.56268 6.24774,-35.21863 17.28078,-49.16932c1.22422,-1.54797 2.54835,-3.01333 3.9291,-4.42358c-0.00941,-0.0083 -0.01862,-0.01752 -0.02821,-0.02581l0.01677,-0.0118c4.0093,-4.53143 9.49374,-8.40559 15.87698,-11.32895c1.951,-0.93586 6.14504,-2.45691 6.24442,-2.45321c12.91527,-4.30761 28.35714,-4.94941 42.5488,0.03226c-19.16447,0.57578 -37.33465,18.11559 -44.24592,46.55219v0.00498c-2.12523,6.6043 -5.00047,24.14725 -3.23587,36.10804c1.82508,12.37009 2.67724,16.18672 9.62354,28.37428c13.60518,22.48073 37.39327,28.39494 38.36508,66.59851z"/></g><g fill="#ffffff"><path d="M434.69592,84.49715c7.46383,2.62081 14.58676,6.77724 20.80591,12.79598c10.64254,10.29851 18.11061,26.16462 21.3935,48.25836c0.30771,2.07029 0.59165,4.17468 0.82414,6.35503c0.04167,0.38073 0.08075,0.76993 0.11983,1.15637c0.21848,2.1704 0.41465,4.42652 0.58593,6.75861c2.96411,40.32032 0,102.31329 0,102.31329l-0.57339,17.42458h-42.61683l-0.03226,-17.42458c-0.97199,-38.20358 -24.75991,-44.11779 -38.3649,-66.59833c-6.94631,-12.18756 -7.79864,-16.00437 -9.62372,-28.37446c-1.7646,-11.96079 1.11083,-29.50355 3.23605,-36.10803v-0.00498c6.91109,-28.4366 25.08126,-45.97622 44.24574,-46.55183z"/></g></g><g><g fill="#000005"><path d="M433.56241,146.88412c0,-9.24669 7.12017,-16.74278 15.90261,-16.74278c2.47958,0 4.81702,0.61487 6.90832,1.68126c-0.04462,-0.01327 -0.09458,-0.02784 -0.09458,-0.02784c-0.79095,-0.20059 -1.61102,-0.30568 -2.45064,-0.30568c-6.71474,0 -12.15991,6.74331 -12.15991,15.06225c0,8.31802 5.44517,15.06207 12.15991,15.06207c2.02456,0 3.92909,-0.61469 5.60686,-1.69657c-2.72738,2.31697 -6.19279,3.71044 -9.96997,3.71044c-8.78244,0 -15.90261,-7.49646 -15.90261,-16.74315z"/></g><g fill="#c4e8fc"><path d="M456.27876,131.79476c0,0 0.04996,0.01438 0.09458,0.02766c5.31556,2.70875 8.99115,8.42605 8.99115,15.0617c0,5.26873 -2.3166,9.96333 -5.92951,13.03271c-1.67777,1.08188 -3.5823,1.69638 -5.60668,1.69638c-6.71474,0 -12.16009,-6.74387 -12.16009,-15.06207c0,-8.31876 5.44535,-15.06207 12.16009,-15.06207c0.83943,0 1.65951,0.10509 2.45045,0.30568z"/></g></g></g><g clip-path="url(#clip-3)"><g fill="#fff200"><g><path d="M409.5114,153.63517c0.27655,0.46093 -7.00604,2.30462 -15.85577,3.96395c-8.84974,1.65932 -18.06822,2.48899 -18.06822,2.48899c0,0 -3.5952,-0.36874 -3.5952,-3.77958c0,-3.04209 3.22646,-3.31865 3.22646,-3.31865c0,0 7.92789,-0.09219 15.39486,-0.09219c7.46697,0 18.62132,0.27655 18.89788,0.73748z"/></g></g><g fill="#fff791"><g><path d="M389.78387,147.59707c8.15835,1.61324 20.14237,5.71545 20.00409,5.94591c-0.13828,0.23046 -11.93793,-0.23046 -18.20649,-0.32264c-6.26857,-0.09219 -18.11431,-0.04609 -18.11431,-0.04609c0,0 -3.41083,-0.36874 -3.41083,-3.96395c0,-3.5952 3.22646,-3.91785 3.22646,-3.91785c0,0 8.34273,0.69138 16.50108,2.30462z"/></g></g><g><g fill="#000005"><path d="M334.56925,279.55955h-87.58253v-17.42458c-0.68696,-10.81235 -1.06971,-74.18089 0,-94.99197c0.25812,-5.01762 0.61396,-10.13756 1.17481,-15.26561c1.92131,-17.56268 6.24773,-35.21863 17.28077,-49.16932c1.22422,-1.54797 2.54836,-3.01333 3.9291,-4.42358c-0.00941,-0.0083 -0.01862,-0.01752 -0.02821,-0.02581l0.01678,-0.0118c4.0093,-4.53143 9.49374,-8.40559 15.87698,-11.32895c1.951,-0.93586 6.14504,-2.45691 6.24441,-2.45321c12.91527,-4.30761 28.35714,-4.94941 42.5488,0.03226c-19.16447,0.57578 -37.33464,18.11559 -44.24592,46.55219v0.00498c-2.12523,6.6043 -5.00047,24.14725 -3.23587,36.10804c1.82508,12.37009 2.67723,16.18672 9.62354,28.37428c13.60518,22.48073 37.39328,28.39494 38.36509,66.59851z"/></g><g fill="#ffffff"><path d="M334.03015,84.49715c7.46383,2.62081 14.58676,6.77724 20.80592,12.79598c10.64254,10.29851 18.11062,26.16462 21.39351,48.25836c0.30771,2.07029 0.59164,4.17468 0.82413,6.35503c0.04167,0.38073 0.08076,0.76993 0.11984,1.15637c0.21848,2.1704 0.41465,4.42652 0.58593,6.75861c2.96411,40.32032 0,102.31329 0,102.31329l-0.57339,17.42458h-42.61683l-0.03226,-17.42458c-0.97199,-38.20358 -24.7599,-44.11779 -38.36489,-66.59833c-6.94631,-12.18756 -7.79865,-16.00437 -9.62373,-28.37446c-1.7646,-11.96079 1.11083,-29.50355 3.23606,-36.10803v-0.00498c6.91109,-28.4366 25.08126,-45.97622 44.24573,-46.55183z"/></g></g><g><g fill="#000005"><path d="M332.89664,146.88412c0,-9.24669 7.12017,-16.74278 15.90261,-16.74278c2.47958,0 4.81702,0.61487 6.90832,1.68126c-0.04462,-0.01327 -0.09458,-0.02784 -0.09458,-0.02784c-0.79095,-0.20059 -1.61102,-0.30568 -2.45064,-0.30568c-6.71474,0 -12.15991,6.74331 -12.15991,15.06225c0,8.31802 5.44517,15.06207 12.15991,15.06207c2.02456,0 3.9291,-0.61469 5.60686,-1.69657c-2.72738,2.31697 -6.19279,3.71044 -9.96997,3.71044c-8.78244,0 -15.90261,-7.49646 -15.90261,-16.74315z"/></g><g fill="#c4e8fc"><path d="M355.613,131.79476c0,0 0.04996,0.01438 0.09458,0.02766c5.31556,2.70875 8.99115,8.42605 8.99115,15.0617c0,5.26873 -2.3166,9.96333 -5.92951,13.03271c-1.67777,1.08188 -3.5823,1.69638 -5.60667,1.69638c-6.71474,0 -12.1601,-6.74387 -12.1601,-15.06207c0,-8.31876 5.44536,-15.06207 12.1601,-15.06207c0.83943,0 1.65951,0.10509 2.45045,0.30568z"/></g></g></g><g clip-path="url(#clip-4)"><g fill="#fff200"><g><path d="M307.00195,153.63517c0.27655,0.46093 -7.00605,2.30462 -15.85578,3.96395c-8.84974,1.65932 -18.06822,2.48899 -18.06822,2.48899c0,0 -3.5952,-0.36874 -3.5952,-3.77958c0,-3.04209 3.22647,-3.31865 3.22647,-3.31865c0,0 7.92789,-0.09219 15.39486,-0.09219c7.46697,0 18.62132,0.27655 18.89788,0.73748z"/></g></g><g fill="#fff791"><g><path d="M287.27441,147.59707c8.15835,1.61324 20.14237,5.71545 20.0041,5.94591c-0.13828,0.23046 -11.93792,-0.23046 -18.20649,-0.32264c-6.26857,-0.09219 -18.11431,-0.04609 -18.11431,-0.04609c0,0 -3.41083,-0.36874 -3.41083,-3.96395c0,-3.5952 3.22647,-3.91785 3.22647,-3.91785c0,0 8.34272,0.69138 16.50107,2.30462z"/></g></g><g><g fill="#000005"><path d="M232.0598,279.55955h-87.58252v-17.42458c-0.68696,-10.81235 -1.06971,-74.18089 0,-94.99197c0.25812,-5.01762 0.61395,-10.13756 1.1748,-15.26561c1.92131,-17.56268 6.24773,-35.21863 17.28077,-49.16932c1.22421,-1.54797 2.54836,-3.01333 3.9291,-4.42358c-0.0094,-0.0083 -0.01862,-0.01752 -0.02821,-0.02581l0.01678,-0.0118c4.0093,-4.53143 9.49374,-8.40559 15.87698,-11.32895c1.951,-0.93586 6.14504,-2.45691 6.24441,-2.45321c12.91527,-4.30761 28.35714,-4.94941 42.5488,0.03226c-19.16448,0.57578 -37.33465,18.11559 -44.24592,46.55219v0.00498c-2.12523,6.6043 -5.00047,24.14725 -3.23587,36.10804c1.82507,12.37009 2.67723,16.18672 9.62354,28.37428c13.60518,22.48073 37.39328,28.39494 38.36509,66.59851z"/></g><g fill="#ffffff"><path d="M231.5207,84.49715c7.46383,2.62081 14.58676,6.77724 20.80592,12.79598c10.64254,10.29851 18.11061,26.16462 21.3935,48.25836c0.30771,2.07029 0.59164,4.17468 0.82413,6.35503c0.04167,0.38073 0.08076,0.76993 0.11984,1.15637c0.21848,2.1704 0.41465,4.42652 0.58593,6.75861c2.96411,40.32032 0,102.31329 0,102.31329l-0.57339,17.42458h-42.61683l-0.03226,-17.42458c-0.97199,-38.20358 -24.75991,-44.11779 -38.3649,-66.59833c-6.94631,-12.18756 -7.79865,-16.00437 -9.62373,-28.37446c-1.7646,-11.96079 1.11083,-29.50355 3.23606,-36.10803v-0.00498c6.91109,-28.4366 25.08126,-45.97622 44.24574,-46.55183z"/></g></g><g><g fill="#000005"><path d="M230.38719,146.88412c0,-9.24669 7.12017,-16.74278 15.90261,-16.74278c2.47958,0 4.81702,0.61487 6.90832,1.68126c-0.04461,-0.01327 -0.09458,-0.02784 -0.09458,-0.02784c-0.79094,-0.20059 -1.61102,-0.30568 -2.45064,-0.30568c-6.71474,0 -12.15991,6.74331 -12.15991,15.06225c0,8.31802 5.44517,15.06207 12.15991,15.06207c2.02456,0 3.9291,-0.61469 5.60686,-1.69657c-2.72738,2.31697 -6.19279,3.71044 -9.96997,3.71044c-8.78244,0 -15.90261,-7.49646 -15.90261,-16.74315z"/></g><g fill="#c4e8fc"><path d="M253.10355,131.79476c0,0 0.04996,0.01438 0.09458,0.02766c5.31556,2.70875 8.99115,8.42605 8.99115,15.0617c0,5.26873 -2.3166,9.96333 -5.92951,13.03271c-1.67776,1.08188 -3.5823,1.69638 -5.60668,1.69638c-6.71474,0 -12.16009,-6.74387 -12.16009,-15.06207c0,-8.31876 5.44535,-15.06207 12.16009,-15.06207c0.83944,0 1.65951,0.10509 2.45046,0.30568z"/></g></g></g></g></g></svg>